<svg xmlns="http://www.w3.org/2000/svg" width="84" height="41" viewBox="0 0 84 41" fill="none">
  <g clip-path="url(#clip0_3629_4165)">
    <path d="M45.5215 15.7488C42.5752 15.1677 40.2239 16.7333 40.2239 16.7333L41.5709 8.68945H38.32C38.32 8.68945 36.516 19.3121 35.8592 23.0915C35.4879 25.3198 36.4637 27.6777 38.3533 28.9119C40.0287 30.0116 42.242 30.0884 44.103 29.4737C45.6833 28.9647 47.0017 27.9706 48.106 26.7364C49.5672 25.1181 50.3193 22.7986 50.0813 20.6279C49.8052 18.222 47.8966 16.157 45.5167 15.7488H45.5215ZM42.0659 26.6164C40.5999 26.5347 39.3766 25.4638 39.1244 24.0039C38.8054 21.7709 40.419 19.6579 42.5038 19.0528C43.1844 18.8559 43.8889 18.8079 44.5743 19.0048C45.8594 19.3217 46.8351 20.5415 46.8589 21.8717C46.9827 24.4265 44.5695 26.7364 42.0659 26.6068V26.6164Z" fill="#FF8800"/>
    <path d="M61.1972 15.7488C58.251 15.1677 56.4946 16.4163 55.8996 16.7333C56.1662 15.0669 56.9325 10.3462 57.2466 8.68945C56.1614 8.68945 55.081 8.68945 53.9957 8.68945C53.2961 12.4641 52.1918 19.3121 51.5349 23.0915C51.1637 25.3198 52.1394 27.6777 54.0291 28.9119C55.7045 30.0116 57.9178 30.0884 59.7788 29.4737C61.3591 28.9647 62.6775 27.9706 63.7818 26.7364C65.243 25.1181 65.9951 22.7986 65.7571 20.6279C65.481 18.222 63.5723 16.157 61.1925 15.7488H61.1972ZM57.7369 26.6164C56.2709 26.5347 55.0476 25.4638 54.7954 24.0039C54.4765 21.7709 56.09 19.6579 58.1748 19.0528C58.8554 18.8559 59.5599 18.8079 60.2453 19.0048C61.5304 19.3217 62.5062 20.5415 62.53 21.8717C62.6537 24.4265 60.2405 26.7364 57.7369 26.6068V26.6164Z" fill="#FF8800"/>
    <path d="M30.3789 24.7243C29.2366 26.3186 26.8663 27.3079 24.9433 26.4579C23.6629 25.8768 23.3202 24.3017 23.4583 23.0675C23.7962 20.8392 24.9243 15.7056 24.9243 15.7056H21.7543C21.7543 15.7056 20.4549 21.6604 20.2026 22.9474C19.9408 24.4889 20.1265 26.0737 21.0308 27.4087C21.7114 28.446 22.7396 29.2384 23.9771 29.5794C25.8715 30.1172 28.0276 29.8339 29.7602 28.9503C31.6974 27.9226 33.2062 26.2082 33.9583 24.2104C34.539 22.5968 35.7813 15.7152 35.7813 15.7152L32.597 15.7104C32.6017 15.7104 31.2119 23.7398 30.3789 24.7243Z" fill="#FF8800"/>
    <path d="M11.6478 8.68958L8.43974 8.70398L6.90234 17.3337C8.32075 16.5413 8.95855 16.3492 10.3103 15.8018L11.6478 8.68958Z" fill="#FF8800"/>
    <path d="M15.7329 16.0803C13.0437 15.2063 10.0926 16.3733 7.6033 17.545C6.02782 18.2894 4.9664 19.053 3.26241 20.4168C1.87733 21.5261 0.963455 23.0677 0.506519 23.9945C0.11146 24.7965 -0.0646505 25.6945 0.0353041 26.5829C0.192376 27.9804 1.03961 29.7044 4.21912 29.8485C9.36917 30.079 9.93558 20.2247 9.93558 20.2247C8.85987 20.5561 7.5319 21.286 6.58947 22.1696C6.58947 22.1696 5.59945 29.3443 2.98159 27.3225C1.95348 26.5253 3.11962 24.7341 4.10965 23.5239C4.75221 22.7411 5.49473 22.0592 6.32293 21.4781C8.36486 20.0374 11.0589 18.7024 13.8957 18.7648C15.2141 18.7936 16.009 19.5524 15.8853 21.1708L14.8238 29.4643H17.9748C17.9748 29.4643 19.0457 21.9631 19.0457 20.7097C19.041 18.4623 17.7511 16.7334 15.7329 16.0803Z" fill="#FF8800"/>
    <path d="M83.1019 34.0841C81.3646 33.6231 78.9371 32.8211 75.2673 32.8307C73.749 32.8355 72.5876 33.0948 70.7694 33.8248C68.5799 34.7036 67.7707 36.1971 68.2848 37.244C68.7941 38.2765 70.9312 37.5801 72.2734 36.6965C73.8013 35.688 74.7057 34.0697 75.0722 33.2629C76.1859 33.2485 77.414 33.3493 78.5468 33.5366C75.6433 39.1889 71.4976 41.2683 67.6041 40.2598C66.2809 39.9189 65.3099 38.6511 65.2243 37.2344C64.9625 32.9603 68.5608 30.175 75.867 30.1846C75.867 30.1846 78.7229 30.0838 84.011 31.3132L83.1019 34.0841Z" fill="#FF8800"/>
    <path d="M79.2293 29.9636C80.1051 24.8972 81.3664 15.7104 81.3664 15.7104L78.3773 15.7297C78.3773 15.7297 77.4254 21.7133 77.135 23.2356C76.8209 25.1421 74.917 26.6116 73.0607 26.7461C72.1373 26.8037 70.9711 26.5012 70.4761 25.6464C70.0097 24.8636 69.8288 23.8791 69.9716 22.9763C70.3048 20.7817 71.0521 15.7249 71.0521 15.7249L68.0153 15.7201C68.0153 15.7201 67.2823 20.5079 66.9301 22.5585C66.7017 23.8839 66.6731 25.2238 67.1872 26.4964C67.6869 27.745 68.6579 28.8351 69.8954 29.3537C71.1282 29.8916 72.5799 29.93 73.8889 29.6659C74.6838 29.5122 75.393 29.1569 76.1402 28.8399L75.9641 29.7043C77.0065 29.6419 78.0965 29.7619 79.2293 29.9636Z" fill="#FF8800"/>
  </g>
  <defs>
    <clipPath id="clip0_3629_4165">
      <rect width="84" height="40" fill="white" transform="translate(0 0.5)"/>
    </clipPath>
  </defs>
</svg>